<svg xmlns="http://www.w3.org/2000/svg" viewBox="0 0 240 120" width="240" height="120">
  <defs>
    <filter id="shadow" x="-20%" y="-20%" width="140%" height="140%">
      <feDropShadow dx="0" dy="2" stdDeviation="2" flood-color="#00000020"/>
    </filter>

    <marker id="arrow" markerWidth="8" markerHeight="8" refX="7" refY="4" orient="auto">
      <path d="M0 0 L8 4 L0 8 Z" fill="#185beb"/>
    </marker>

    <clipPath id="scanClip">
      <rect x="30" y="20" width="54" height="76" rx="6"/>
    </clipPath>
  </defs>

  
  <!-- Source Document -->
  <g filter="url(#shadow)">
    <rect x="30" y="20" width="54" height="76" rx="6" fill="#F3F4F6"/>

    <!-- Fold -->
    <path d="M72 20 L84 32 L72 32 Z" fill="#E5E7EB"/>

    <!-- Content -->
    <rect x="40" y="34" width="24" height="4" rx="2" fill="#515457"/>
    <rect x="40" y="44" width="34" height="3" rx="1.5" fill="#515457"/>
    <rect x="40" y="52" width="28" height="3" rx="1.5" fill="#515457"/>
    <rect x="40" y="62" width="20" height="16" rx="3" fill="#a5c9f7"/>

    <!-- Animated Scan Line -->
    <g clip-path="url(#scanClip)">
      <rect x="30" y="20" width="54" height="6" fill="#60A5FA" opacity=".45">
        <animate attributeName="y"
                 values="20;90;20"
                 dur="2s"
                 repeatCount="indefinite"/>
      </rect>
    </g>
  </g>

  <!-- Conversion Arrow -->
  <path d="M92 58 H145"
        fill="none"
        stroke="#2563EB"
        stroke-width="2.5"
        stroke-linecap="round"
        stroke-dasharray="8 6"
        marker-end="url(#arrow)">
    <animate attributeName="stroke-dashoffset"
             values="14;0"
             dur="0.8s"
             repeatCount="indefinite"/>
  </path>

  <!-- Output Document -->
  <g filter="url(#shadow)">
    <rect x="156" y="20" width="54" height="76" rx="6" fill="#FFFFFF"/>

    <!-- Fold -->
    <path d="M198 20 L210 32 L198 32 Z" fill="#E5E7EB"/>

    <!-- Content -->
    <rect x="166" y="34" width="24" height="4" rx="2" fill="#a5c9f7"/>
    <rect x="166" y="44" width="34" height="3" rx="1.5" fill="#515457"/>
    <rect x="166" y="52" width="30" height="3" rx="1.5" fill="#515457"/>
    <rect x="166" y="62" width="20" height="16" rx="3" fill="#a5c9f7"/>

<!-- Animated Success Badge -->
<g opacity="0">
  <!-- Fade In / Out -->
  <animate attributeName="opacity"
           values="0;0;1;1;0;0"
           keyTimes="0;0.4;0.5;0.75;0.9;1"
           dur="2.5s"
           repeatCount="indefinite"/>

  <!-- Optional Pop Effect -->
  <animateTransform
      attributeName="transform"
      type="scale"
      values="0.8;1.05;1"
      keyTimes="0;0.6;1"
      dur="2.5s"
      repeatCount="indefinite"
      additive="sum"
      origin="184 84"/>

  <circle cx="184" cy="84" r="9" fill="#22C55E"/>

  <path d="M180 84 L183 87 L189 80"
        fill="none"
        stroke="#FFFFFF"
        stroke-width="2"
        stroke-linecap="round"
        stroke-linejoin="round"/>
</g>
</g>
</svg>