<svg width="220" height="220" viewBox="0 0 220 220" xmlns="http://www.w3.org/2000/svg" role="img" aria-labelledby="title">
  <title>Technical Documentation &amp; eLearning DTP</title>

  <style>
    .line{
      stroke:#CBD5E1;
      stroke-width:2;
      stroke-linecap:round;
      stroke-dasharray:50;
      stroke-dashoffset:50;
      animation:draw .8s forwards;
    }
    .l2{animation-delay:.2s}
    .l3{animation-delay:.4s}
    .l4{animation-delay:.6s}

    .gear{
      transform-origin:335px 72px;
      animation:spin 10s linear infinite;
    }

    .cursor{
      animation:blink 1s steps(1) infinite;
    }

    .globe{
      transform-origin:338px 160px;
      animation:pulse 2.5s ease-in-out infinite;
    }

    .cap{
      animation:float 3s ease-in-out infinite;
    }

    @keyframes draw{
      to{stroke-dashoffset:0;}
    }

    @keyframes spin{
      from{transform:rotate(0deg);}
      to{transform:rotate(360deg);}
    }

    @keyframes blink{
      50%{opacity:0;}
    }

    @keyframes pulse{
      50%{transform:scale(1.08);}
    }

    @keyframes float{
      50%{transform:translateY(-4px);}
    }

    @media (prefers-reduced-motion: reduce){
      *{
        animation:none!important;
      }
    }
  </style>

  <g transform="translate(-27.5,28.1875) scale(0.6875)">

    <!-- Laptop -->
    <rect x="55" y="42" width="220" height="140" rx="8" fill="#fff" stroke="#2563EB" stroke-width="2"/>
    <rect x="40" y="182" width="250" height="14" rx="7" fill="#E2E8F0"/>

    <!-- Document -->
    <rect x="82" y="58" width="120" height="98" rx="6" fill="#F8FAFC" stroke="#CBD5E1"/>
    <polyline points="182,58 202,58 202,78" fill="none" stroke="#CBD5E1"/>

    <!-- Text -->
    <line class="line" x1="96" y1="82" x2="175" y2="82"/>
    <line class="line l2" x1="96" y1="98" x2="185" y2="98"/>
    <line class="line l3" x1="96" y1="114" x2="170" y2="114"/>
    <line class="line l4" x1="96" y1="130" x2="180" y2="130"/>

    <!-- Cursor -->
    <rect class="cursor" x="185" y="124" width="3" height="14" fill="#14B8A6"/>

    <!-- Gear -->
    <g class="gear">
      <circle cx="335" cy="72" r="16" fill="none" stroke="#2563EB" stroke-width="2"/>
      <circle cx="335" cy="72" r="5" fill="#2563EB"/>

      <line x1="335" y1="50" x2="335" y2="58" stroke="#2563EB" stroke-width="2"/>
      <line x1="335" y1="86" x2="335" y2="94" stroke="#2563EB" stroke-width="2"/>
      <line x1="313" y1="72" x2="321" y2="72" stroke="#2563EB" stroke-width="2"/>
      <line x1="349" y1="72" x2="357" y2="72" stroke="#2563EB" stroke-width="2"/>
      <line x1="320" y1="57" x2="325" y2="62" stroke="#2563EB" stroke-width="2"/>
      <line x1="345" y1="82" x2="350" y2="87" stroke="#2563EB" stroke-width="2"/>
      <line x1="320" y1="87" x2="325" y2="82" stroke="#2563EB" stroke-width="2"/>
      <line x1="345" y1="62" x2="350" y2="57" stroke="#2563EB" stroke-width="2"/>
    </g>

    <!-- Globe -->
    <g class="globe">
      <circle cx="338" cy="160" r="22" fill="none" stroke="#14B8A6" stroke-width="2"/>
      <ellipse cx="338" cy="160" rx="9" ry="22" fill="none" stroke="#14B8A6" stroke-width="2"/>
      <line x1="316" y1="160" x2="360" y2="160" stroke="#14B8A6" stroke-width="2"/>
      <path d="M320 150 Q338 142 356 150" fill="none" stroke="#14B8A6" stroke-width="2"/>
      <path d="M320 170 Q338 178 356 170" fill="none" stroke="#14B8A6" stroke-width="2"/>
    </g>

    <!-- Graduation Cap -->
    <g class="cap">
      <polygon points="270,125 300,112 330,125 300,138" fill="#2563EB"/>
      <rect x="288" y="138" width="24" height="6" rx="2" fill="#2563EB"/>
      <line x1="330" y1="125" x2="330" y2="145" stroke="#2563EB" stroke-width="2"/>
      <circle cx="330" cy="148" r="2.5" fill="#14B8A6"/>
    </g>
  </g>
</svg>
