<svg width="220" height="220" viewBox="0 0 220 220" xmlns="http://www.w3.org/2000/svg">
  <defs>
    <linearGradient id="bubbleBlue" x1="0%" y1="0%" x2="100%" y2="100%">
      <stop offset="0%" stop-color="#3B5BFE"/>
      <stop offset="100%" stop-color="#1E3FE0"/>
    </linearGradient>
    <linearGradient id="bubbleTeal" x1="0%" y1="0%" x2="100%" y2="100%">
      <stop offset="0%" stop-color="#2DD4C8"/>
      <stop offset="100%" stop-color="#16B8AE"/>
    </linearGradient>
    <linearGradient id="bubblePurple" x1="0%" y1="0%" x2="100%" y2="100%">
      <stop offset="0%" stop-color="#9747FF"/>
      <stop offset="100%" stop-color="#7A2FE0"/>
    </linearGradient>
    <linearGradient id="sidebarGrad" x1="0%" y1="0%" x2="0%" y2="100%">
      <stop offset="0%" stop-color="#3B5BFE"/>
      <stop offset="100%" stop-color="#2436C9"/>
    </linearGradient>
    <linearGradient id="btnGrad" x1="0%" y1="0%" x2="100%" y2="0%">
      <stop offset="0%" stop-color="#4C6BFF"/>
      <stop offset="100%" stop-color="#7A4CFF"/>
    </linearGradient>
    <linearGradient id="donutGrad" x1="0%" y1="0%" x2="100%" y2="100%">
      <stop offset="0%" stop-color="#5B6BFF"/>
      <stop offset="100%" stop-color="#3B4BFF"/>
    </linearGradient>
  </defs>

  <style>
    .floatSlow{animation:floatSlow 6s ease-in-out infinite;transform-origin:center;}
    .pulse{animation:pulse 3s ease-in-out infinite;transform-origin:center;}
    .draw{stroke-dasharray:220;stroke-dashoffset:220;animation:draw 4s ease-in-out infinite alternate;}
    @keyframes floatSlow{0%,100%{transform:translateY(0px);}50%{transform:translateY(-4px);}}
    @keyframes pulse{0%,100%{transform:scale(1);}50%{transform:scale(1.03);}}
    @keyframes draw{0%{stroke-dashoffset:220;}100%{stroke-dashoffset:0;}}
  </style>

  <g transform="translate(-77.434,-7.237) scale(0.361842)">

  <!-- globe background -->
  <circle cx="515" cy="290" r="270" fill="#a4abbb" opacity="0.6"/>
  <g stroke="#c6d3eb" stroke-width="1.5" fill="none" opacity="0.7">
    <ellipse cx="515" cy="290" rx="270" ry="270"/>
    <ellipse cx="515" cy="290" rx="270" ry="100"/>
    <ellipse cx="515" cy="290" rx="270" ry="180"/>
    <ellipse cx="515" cy="290" rx="120" ry="270"/>
    <ellipse cx="515" cy="290" rx="200" ry="270"/>
    <line x1="245" y1="290" x2="785" y2="290"/>
  </g>
  <path d="M 350 350 Q 390 370 370 410 Q 420 420 410 460" fill="#C7D7F7" opacity="0.8"/>
 
  <!-- Browser/dashboard window -->
  <g class="floatSlow">
    <rect x="216" y="167" width="418" height="350" rx="14" fill="#FFFFFF" stroke="#E6EAF5" stroke-width="1.5"/>
    <!-- title bar -->
    <rect x="216" y="167" width="418" height="40" rx="14" fill="#FFFFFF"/>
    <rect x="216" y="195" width="418" height="12" fill="#FFFFFF"/>
    <circle cx="237" cy="187" r="6" fill="#FF6058"/>
    <circle cx="258" cy="187" r="6" fill="#FFBD2E"/>
    <circle cx="279" cy="187" r="6" fill="#28C940"/>
    <line x1="216" y1="207" x2="634" y2="207" stroke="#EEF1F8" stroke-width="1.5"/>

    <!-- sidebar -->
    <rect x="216" y="207" width="80" height="310" fill="url(#sidebarGrad)"/>
    <rect x="234" y="225" width="44" height="14" rx="7" fill="#FFFFFF" opacity="0.85"/>
    <!-- nav icons -->
    <g fill="#FFFFFF" opacity="0.85">
      <path d="M 240 273 L 248 266 L 256 273 L 256 285 L 244 285 L 244 277 L 252 277 L 252 285 L 256 285" fill="none" stroke="#FFFFFF" stroke-width="2"/>
    </g>
    <rect x="265" y="273" width="20" height="6" rx="3" fill="#FFFFFF" opacity="0.6"/>

    <rect x="232" y="303" width="33" height="32" rx="6" fill="#FFFFFF" opacity="0.95"/>
    <g fill="url(#bubbleBlue)">
      <rect x="238" y="309" width="8" height="8" rx="1"/>
      <rect x="250" y="309" width="8" height="8" rx="1"/>
      <rect x="238" y="321" width="8" height="8" rx="1"/>
      <rect x="250" y="321" width="8" height="8" rx="1"/>
    </g>
    <rect x="268" y="316" width="18" height="6" rx="3" fill="#FFFFFF" opacity="0.6"/>

    <circle cx="240" cy="358" r="10" fill="none" stroke="#FFFFFF" stroke-width="2" opacity="0.85"/>
    <path d="M 240 348 L 240 358 L 248 363" stroke="#FFFFFF" stroke-width="2" fill="none" opacity="0.85"/>
    <rect x="265" y="354" width="20" height="6" rx="3" fill="#FFFFFF" opacity="0.6"/>

    <circle cx="240" cy="392" r="10" fill="none" stroke="#FFFFFF" stroke-width="2" opacity="0.85"/>
    <circle cx="240" cy="392" r="3" fill="#FFFFFF" opacity="0.85"/>
    <rect x="265" y="388" width="20" height="6" rx="3" fill="#FFFFFF" opacity="0.6"/>

    <!-- main content -->
      <rect x="318" y="250" width="80" height="8" rx="4" fill="#EDF0FA"/>

    <rect class="pulse" x="515" y="222" width="100" height="32" rx="16" fill="url(#btnGrad)"/>
      <path d="M 595 235 L 600 240 L 605 235" stroke="#FFFFFF" stroke-width="1.5" fill="none"/>

    <!-- chart card -->
    <rect x="318" y="280" width="142" height="100" rx="12" fill="#F7F9FE" stroke="#EEF1F8"/>
    <polyline class="draw" points="330,355 350,340 365,350 385,320 405,335 430,300" fill="none" stroke="#5B6BFF" stroke-width="2.5"/>
    <circle cx="430" cy="300" r="4" fill="#5B6BFF"/>

    <!-- donut card -->
    <rect x="470" y="280" width="142" height="100" rx="12" fill="#F7F9FE" stroke="#EEF1F8"/>
    <circle cx="510" cy="330" r="24" fill="none" stroke="url(#donutGrad)" stroke-width="13"/>
    <circle cx="510" cy="330" r="24" fill="none" stroke="#E2E7F8" stroke-width="13" stroke-dasharray="20 150"/>
    <g fill="#D7DEF5">
      <circle cx="552" cy="305" r="3"/>
      <rect x="560" y="302" width="36" height="6" rx="3"/>
      <circle cx="552" cy="320" r="3"/>
      <rect x="560" y="317" width="36" height="6" rx="3"/>
      <circle cx="552" cy="335" r="3"/>
      <rect x="560" y="332" width="36" height="6" rx="3"/>
      <circle cx="552" cy="350" r="3"/>
      <rect x="560" y="347" width="36" height="6" rx="3"/>
    </g>

    <!-- list card -->
    <rect x="318" y="392" width="294" height="92" rx="12" fill="#F7F9FE" stroke="#EEF1F8"/>
    <circle cx="335" cy="412" r="5" fill="#4C6BFF"/>
    <rect x="350" y="408" width="110" height="8" rx="4" fill="#E2E7F8"/>
    <circle cx="600" cy="412" r="2" fill="#B9C2DF"/>
    <circle cx="600" cy="412" r="2" fill="#B9C2DF" transform="translate(0,0)"/>
    <text x="598" y="416" font-size="10" fill="#B9C2DF">⋮</text>

    <circle cx="335" cy="438" r="5" fill="#2DD4C8"/>
    <rect x="350" y="434" width="110" height="8" rx="4" fill="#E2E7F8"/>
    <text x="598" y="442" font-size="10" fill="#B9C2DF">⋮</text>

    <circle cx="335" cy="464" r="5" fill="#9747FF"/>
    <rect x="350" y="460" width="110" height="8" rx="4" fill="#E2E7F8"/>
    <text x="598" y="468" font-size="10" fill="#B9C2DF">⋮</text>

    <!-- save changes button -->
    <rect class="pulse" x="495" y="478" width="125" height="30" rx="18" fill="url(#btnGrad)"/>
    </g>

  <!-- phone -->
  <g class="floatSlow">
    <rect x="648" y="198" width="172" height="338" rx="28" fill="#1A2350"/>
    <rect x="656" y="214" width="156" height="306" rx="18" fill="#FFFFFF"/>
    <rect x="710" y="203" width="48" height="9" rx="4" fill="#1A2350"/>

    <!-- status bar -->
    <text x="666" y="230" font-family="Arial, sans-serif" font-size="10" fill="#1A2350" font-weight="bold">9:41</text>
    <g fill="#1A2350">
      <rect x="770" y="223" width="3" height="6" />
      <rect x="775" y="221" width="3" height="8" />
      <rect x="780" y="219" width="3" height="10" />
      <path d="M 790 228 Q 795 220 800 228" fill="none" stroke="#1A2350" stroke-width="1.5"/>
      <rect x="804" y="221" width="10" height="7" rx="1.5" fill="none" stroke="#1A2350" stroke-width="1"/>
      <rect x="805.5" y="222.5" width="7" height="4" fill="#1A2350"/>
    </g>

    <!-- header -->
        <circle cx="793" cy="246" r="10" fill="#F7F9FE"/>
    <path d="M 793 240 Q 798 240 798 246 L 798 250 L 788 250 L 788 246 Q 788 240 793 240" fill="none" stroke="#1A2350" stroke-width="1.3"/>
    <circle cx="798" cy="240" r="2.5" fill="#FF6058"/>

    <!-- chart card -->
    <rect x="660" y="265" width="148" height="78" rx="12" fill="#F7F9FE" stroke="#EEF1F8"/>
    <polyline class="draw" points="672,320 690,308 705,316 722,292 740,303 760,278" fill="none" stroke="#5B6BFF" stroke-width="2.5"/>
    <circle cx="760" cy="278" r="4" fill="#5B6BFF"/>

    <!-- donut card -->
    <rect x="660" y="350" width="148" height="65" rx="12" fill="#F7F9FE" stroke="#EEF1F8"/>
    <circle cx="690" cy="382" r="20" fill="none" stroke="url(#donutGrad)" stroke-width="11"/>
    <circle cx="690" cy="382" r="20" fill="none" stroke="#E2E7F8" stroke-width="11" stroke-dasharray="16 120"/>
    <g fill="#D7DEF5">
      <circle cx="725" cy="368" r="2.5"/>
      <rect x="731" y="365.5" width="50" height="5" rx="2.5"/>
      <circle cx="725" cy="382" r="2.5"/>
      <rect x="731" y="379.5" width="50" height="5" rx="2.5"/>
      <circle cx="725" cy="396" r="2.5"/>
      <rect x="731" y="393.5" width="50" height="5" rx="2.5"/>
    </g>

    <!-- list rows -->
    <rect x="665" y="424" width="12" height="12" rx="3" fill="#5B6BFF"/>
    <rect x="685" y="427" width="80" height="7" rx="3.5" fill="#E2E7F8"/>
    <text x="800" y="434" font-size="13" fill="#B9C2DF">›</text>

    <circle cx="671" cy="454" r="8" fill="#2DD4C8"/>
    <text x="671" y="458" text-anchor="middle" font-size="9" fill="#fff">$</text>
    <rect x="685" y="450" width="80" height="7" rx="3.5" fill="#E2E7F8"/>
    <text x="800" y="457" font-size="13" fill="#B9C2DF">›</text>

    <circle cx="671" cy="480" r="8" fill="#9747FF"/>
    <path d="M 671 477 a 3 3 0 1 0 0.1 0" fill="#fff"/>
    <rect x="685" y="476" width="80" height="7" rx="3.5" fill="#E2E7F8"/>
    <text x="800" y="483" font-size="13" fill="#B9C2DF">›</text>

    <!-- bottom nav -->
    <line x1="656" y1="498" x2="812" y2="498" stroke="#EEF1F8" stroke-width="1.5"/>
    <path d="M 670 510 L 670 504 L 675 500 L 680 504 L 680 510 Z" fill="#1A2350"/>
    <g fill="none" stroke="#B9C2DF" stroke-width="1.5">
      <rect x="700" y="503" width="6" height="6" rx="1"/>
      <rect x="709" y="503" width="6" height="6" rx="1"/>
      <rect x="700" y="512" width="6" height="6" rx="1" opacity="0"/>
    </g>
    <rect x="700" y="503" width="6" height="6" rx="1" fill="#B9C2DF"/>
    <rect x="709" y="503" width="6" height="6" rx="1" fill="#B9C2DF"/>
    <rect x="700" y="512" width="6" height="6" rx="1" fill="#B9C2DF"/>
    <rect x="709" y="512" width="6" height="6" rx="1" fill="#B9C2DF"/>
    <path d="M 735 504 L 745 504 L 745 514 L 735 514 Z M 738 518 L 742 522" stroke="#B9C2DF" stroke-width="1.5" fill="none"/>
    <circle cx="780" cy="505" r="4" fill="none" stroke="#B9C2DF" stroke-width="1.5"/>
    <path d="M 775 514 Q 780 508 785 514" fill="none" stroke="#B9C2DF" stroke-width="1.5"/>
  </g>

  <!-- bottom language toggle bar -->
  <g>
    <rect x="375" y="588" width="240" height="40" rx="20" fill="#FFFFFF" stroke="#E6EAF5" stroke-width="1.5"/>
    <rect x="390" y="598" width="34" height="20" rx="6" fill="none" stroke="#5B6BFF" stroke-width="1.5"/>
    <rect x="462" y="600" width="40" height="16" rx="8" fill="url(#btnGrad)"/>
    <circle cx="494" cy="608" r="9" fill="#FFFFFF"/>
    <rect x="535" y="598" width="56" height="20" rx="10" fill="#FFFFFF" stroke="#E2E7F8" stroke-width="1.5"/>
    <path d="M 580 604 L 585 608 L 580 612" stroke="#9CA8D9" stroke-width="1.5" fill="none"/>
  </g>

  </g>
</svg>
